# Blender v2.79 (sub 0) OBJ File: ''
# www.blender.org
mtllib table.mtl
o Cube.001
v -0.562270 0.541022 1.000000
v -0.562270 0.541022 -1.000000
v 0.562270 0.541022 -1.000000
v 0.562270 0.541022 1.000000
v -0.562270 0.599815 1.000000
v 0.562270 0.599815 1.000000
v 0.562270 0.599815 -1.000000
v -0.562270 0.599815 -1.000001
v -0.497893 -0.215794 -0.835204
v -0.497893 -0.215794 -0.926503
v -0.445167 -0.215794 -0.926503
v -0.445167 -0.215794 -0.835204
v -0.497893 0.550058 -0.835204
v -0.445167 0.550058 -0.835204
v -0.445167 0.550058 -0.926503
v -0.497893 0.550058 -0.926503
v 0.443770 -0.215794 -0.835204
v 0.443770 -0.215794 -0.926503
v 0.496496 -0.215794 -0.926503
v 0.496496 -0.215794 -0.835204
v 0.443770 0.550058 -0.835204
v 0.496496 0.550058 -0.835204
v 0.496496 0.550058 -0.926503
v 0.443770 0.550058 -0.926503
v -0.497893 -0.215794 0.902016
v -0.497893 -0.215794 0.810718
v -0.445166 -0.215794 0.810718
v -0.445166 -0.215794 0.902016
v -0.497893 0.550058 0.902016
v -0.445166 0.550058 0.902016
v -0.445166 0.550058 0.810718
v -0.497893 0.550058 0.810718
v 0.443770 -0.215794 0.902016
v 0.443770 -0.215794 0.810718
v 0.496496 -0.215794 0.810718
v 0.496496 -0.215794 0.902016
v 0.443770 0.550058 0.902016
v 0.496496 0.550058 0.902016
v 0.496496 0.550058 0.810718
v 0.443770 0.550058 0.810718
v -0.498763 0.482229 0.903381
v -0.498763 0.482229 -0.926543
v -0.498763 0.541022 -0.926544
v -0.498763 0.541022 0.903380
v -0.516019 0.482229 0.903381
v -0.516019 0.541022 0.903380
v -0.516019 0.541022 -0.926544
v -0.516019 0.482229 -0.926543
v 0.514173 0.482229 0.903380
v 0.514173 0.482229 -0.926543
v 0.514173 0.541022 -0.926544
v 0.514173 0.541022 0.903380
v 0.496917 0.482229 0.903380
v 0.496917 0.541022 0.903380
v 0.496918 0.541022 -0.926544
v 0.496917 0.482229 -0.926543
v 0.514173 0.482229 0.903380
v -0.516019 0.482229 0.903381
v -0.516019 0.541022 0.903380
v 0.514173 0.541022 0.903381
v 0.514173 0.482229 0.920636
v 0.514173 0.541022 0.920636
v -0.516019 0.541022 0.920636
v -0.516019 0.482229 0.920636
v 0.514173 0.482229 -0.943799
v -0.516019 0.482229 -0.943799
v -0.516019 0.541022 -0.943799
v 0.514173 0.541022 -0.943799
v 0.514173 0.482229 -0.926543
v 0.514173 0.541022 -0.926543
v -0.516019 0.541022 -0.926544
v -0.516019 0.482229 -0.926543
vt 0.679669 0.216846
vt 0.006860 0.595146
vt 0.006860 0.216846
vt 0.006860 0.993225
vt 0.679669 0.614925
vt 0.679669 0.993225
vt 0.995582 0.263494
vt 0.970559 0.734032
vt 0.970557 0.263494
vt 0.995586 0.734032
vt 0.970559 0.998611
vt 0.679669 0.595146
vt 0.995583 -0.001075
vt 0.540767 0.216397
vt 0.523030 0.185684
vt 0.540767 0.185684
vt 0.700348 0.310775
vt 0.957984 0.293038
vt 0.957984 0.310775
vt 0.700348 0.262325
vt 0.957984 0.244587
vt 0.957984 0.262324
vt 0.700348 0.244587
vt 0.957984 0.213874
vt 0.700348 0.293038
vt 0.558953 0.216397
vt 0.541216 0.185684
vt 0.558953 0.185684
vt 0.700348 0.408126
vt 0.957984 0.390388
vt 0.957984 0.408126
vt 0.700348 0.359675
vt 0.957984 0.341937
vt 0.957984 0.359675
vt 0.700348 0.341938
vt 0.957984 0.311224
vt 0.700348 0.390388
vt 0.577140 0.216397
vt 0.559402 0.185684
vt 0.577140 0.185684
vt 0.264945 0.216397
vt 0.522581 0.198659
vt 0.522581 0.216397
vt 0.264945 0.167946
vt 0.522581 0.150208
vt 0.522581 0.167946
vt 0.264945 0.150208
vt 0.522581 0.119495
vt 0.264945 0.198659
vt 0.595326 0.216397
vt 0.577589 0.185684
vt 0.595326 0.185684
vt 0.006860 0.216397
vt 0.264496 0.198659
vt 0.264496 0.216397
vt 0.006860 0.167946
vt 0.264496 0.150208
vt 0.264496 0.167946
vt 0.006860 0.150208
vt 0.264496 0.119495
vt 0.006860 0.198659
vt 0.767346 0.993225
vt 0.748564 0.408638
vt 0.767347 0.408638
vt 0.796332 0.408575
vt 0.777549 0.993162
vt 0.777550 0.408575
vt 0.719130 0.993225
vt 0.700348 0.408638
vt 0.719130 0.408638
vt 0.748115 0.408575
vt 0.729333 0.993162
vt 0.729333 0.408575
vt 0.868526 0.647589
vt 0.888250 0.993221
vt 0.868525 0.993221
vt 0.842766 0.993225
vt 0.862494 0.647593
vt 0.862492 0.993225
vt 0.636229 0.216397
vt 0.656008 0.210592
vt 0.656008 0.216397
vt 0.615553 0.210592
vt 0.595775 0.216397
vt 0.595775 0.210592
vt 0.822539 0.647585
vt 0.842317 0.993214
vt 0.822592 0.993217
vt 0.796834 0.993225
vt 0.816506 0.647590
vt 0.816559 0.993222
vt 0.656457 0.216397
vt 0.676235 0.210592
vt 0.676235 0.216397
vt 0.635780 0.210592
vt 0.616002 0.216397
vt 0.616002 0.210592
vt 0.006860 0.614925
vt 0.995586 0.998611
vt 0.970557 -0.001075
vt 0.523030 0.216397
vt 0.700348 0.213874
vt 0.541216 0.216397
vt 0.700348 0.311224
vt 0.559402 0.216397
vt 0.264945 0.119495
vt 0.577589 0.216397
vt 0.006860 0.119495
vt 0.748564 0.993225
vt 0.796332 0.993162
vt 0.700348 0.993225
vt 0.748115 0.993162
vt 0.888252 0.647589
vt 0.842768 0.647593
vt 0.636229 0.210592
vt 0.615553 0.216397
vt 0.842264 0.647582
vt 0.796781 0.647593
vt 0.656457 0.210592
vt 0.635780 0.216397
vn 0.0000 -1.0000 -0.0000
vn -0.0000 1.0000 0.0000
vn -1.0000 0.0000 0.0000
vn 0.0000 -0.0000 -1.0000
vn 1.0000 0.0000 0.0000
vn 0.0000 0.0000 1.0000
usemtl Material.004
s 1
f 2//1 4//1 1//1
f 5//2 7//2 8//2
f 5//3 2//3 1//3
f 8//4 3//4 2//4
f 7//5 4//5 3//5
f 1//6 6//6 5//6
f 10//1 12//1 9//1
f 9//6 14//6 13//6
f 11//4 16//4 15//4
f 10//3 13//3 16//3
f 12//5 15//5 14//5
f 18//1 20//1 17//1
f 17//6 22//6 21//6
f 19//4 24//4 23//4
f 18//3 21//3 24//3
f 20//5 23//5 22//5
f 26//1 28//1 25//1
f 25//6 30//6 29//6
f 27//4 32//4 31//4
f 26//3 29//3 32//3
f 28//5 31//5 30//5
f 34//1 36//1 33//1
f 33//6 38//6 37//6
f 35//4 40//4 39//4
f 34//3 37//3 40//3
f 36//5 39//5 38//5
f 42//5 44//5 41//5
f 46//3 48//3 45//3
f 41//1 48//1 42//1
f 50//5 52//5 49//5
f 54//3 56//3 53//3
f 49//1 56//1 50//1
f 58//4 60//4 57//4
f 62//6 64//6 61//6
f 58//3 63//3 59//3
f 57//1 64//1 58//1
f 60//5 61//5 57//5
f 66//4 68//4 65/88/4
f 70//6 72//6 69/91/6
f 66//3 71//3 67/94/3
f 65//1 72//1 66/86/1
f 68//5 69//5 65/97/5
f 2//1 3//1 4/2/1
f 5//2 6//2 7/5/2
f 5//3 8//3 2/8/3
f 8//4 7//4 3/11/4
f 7//5 6//5 4/2/5
f 1//6 4//6 6/13/6
f 10//1 11//1 12/15/1
f 9//6 12//6 14/18/6
f 11//4 10//4 16/21/4
f 10//3 9//3 13/24/3
f 12//5 11//5 15/22/5
f 18//1 19//1 20/27/1
f 17//6 20//6 22/30/6
f 19//4 18//4 24/33/4
f 18//3 17//3 21/36/3
f 20//5 19//5 23/34/5
f 26//1 27//1 28/39/1
f 25//6 28//6 30/42/6
f 27//4 26//4 32/45/4
f 26//3 25//3 29/48/3
f 28//5 27//5 31/46/5
f 34//1 35//1 36/51/1
f 33//6 36//6 38/54/6
f 35//4 34//4 40/57/4
f 34//3 33//3 37/60/3
f 36//5 35//5 39//5
f 42//5 43//5 44//5
f 46//3 47//3 48//3
f 41//1 45//1 48/66/1
f 50//5 51//5 52//5
f 54//3 55//3 56//3
f 49//1 53//1 56/71
f 58//4 59//4 60//4
f 62//6 63//6 64//6
f 58//3 64//3 63//3
f 57//1 61//1 64//1
f 60//5 62//5 61//5
f 66//4 67//4 68//4
f 70//6 71//6 72//6
f 66//3 72//3 71//3
f 65//1 69//1 72//1
f 68//5 70//5 69//5
